<?xml version="1.0" encoding="UTF-8" standalone="no"?>
<svg
   width="1080"
   height="1920"
   viewBox="0 0 282.14313 235.5754"
   xmlns="http://www.w3.org/2000/svg">
  <defs>
    <style
       id="style2">
         :root {
            --right-wing: #7bd4fe;
            --left-wing: #ffc1c1;
         }

         @media (prefers-color-scheme: dark) {
            :root {
            --right-wing: #222;
            --left-wing: #222;
            }
         }
      </style>
  </defs>
  <g
     transform="matrix(0.6334218,0,0,0.60980029,118.41589,-194.3083)"
     id="g12">
    <g
       transform="matrix(3.1162887,0,0,3.1162887,-74.02276,-159.05858)"
       fill="var(--left-wing)"
       id="g10">
      <path
         d="m 95.429254,139.67788 2.37892,2.37893 c 3.525636,3.52563 3.525636,9.20228 0,12.72792 l -29.698482,29.69848 c -3.525634,3.52564 -9.202287,3.52564 -12.727922,0 l -8.485281,-8.48528 c -3.525635,-3.52563 -3.525635,-9.20228 0,-12.72792 l 18.922559,-18.92256 c 10.829319,-10.82932 21.7742,-12.50557 29.610206,-4.66957 z"
         id="path6" />
      <path
         d="m 95.429254,199.593 2.37892,-2.37893 c 3.525646,-3.52563 3.525646,-9.20228 0,-12.72792 l -29.69848,-29.69848 c -3.52564,-3.52564 -9.20229,-3.52564 -12.72792,0 l -8.48529,8.48528 c -3.52563,3.52563 -3.52563,9.20228 0,12.72792 l 18.92256,18.92256 c 10.82932,10.82932 21.7742,12.50557 29.61021,4.66957 z"
         id="path8" />
    </g>
  </g>
  <g
     transform="matrix(-0.87108421,0,0,0.89294636,225.67687,-160.15134)"
     id="g20">
    <g
       transform="matrix(3.1162887,0,0,3.1162887,-74.02276,-159.05858)"
       fill="var(--right-wing)"
       id="g18">
      <path
         d="m 95.429254,139.67788 2.37892,2.37893 c 3.525636,3.52563 3.525636,9.20228 0,12.72792 l -29.698482,29.69848 c -3.525634,3.52564 -9.202287,3.52564 -12.727922,0 l -8.485281,-8.48528 c -3.525635,-3.52563 -3.525635,-9.20228 0,-12.72792 l 18.922559,-18.92256 c 10.829319,-10.82932 21.7742,-12.50557 29.610206,-4.66957 z"
         id="path14" />
      <path
         d="m 95.429254,199.593 2.37892,-2.37893 c 3.525646,-3.52563 3.525646,-9.20228 0,-12.72792 l -29.69848,-29.69848 c -3.52564,-3.52564 -9.20229,-3.52564 -12.72792,0 l -8.48529,8.48528 c -3.52563,3.52563 -3.52563,9.20228 0,12.72792 l 18.92256,18.92256 c 10.82932,10.82932 21.7742,12.50557 29.61021,4.66957 z"
         id="path16" />
    </g>
  </g>
</svg>
