<svg width="1080" height="1920" viewBox="0 0 282.14313 235.5754" xmlns="http://www.w3.org/2000/svg">
<defs>
    <style>
        :root {
            --right-wing: #7bd4fe;
            --left-wing: #ffc1c1;
        }

        @media (prefers-color-scheme: dark) {
            :root {
            --right-wing: #222;
            --left-wing: #222;
            }
        }

        .blur {
            filter: url(#f1);
        }
    </style>
    <filter id="f1" x="-0.2" y="-0.2" width="1.4" height="1.4">
        <feGaussianBlur in="SourceGraphic" stdDeviation="3" />
    </filter>
</defs>
<g class="blur" transform="matrix(0.6334218,0,0,0.60980029,118.41589,-194.3083)">
    <g transform="matrix(3.1162887,0,0,3.1162887,-74.02276,-159.05858)" fill="var(--left-wing)">
        <path d="m 95.429254,139.67788 2.37892,2.37893 c 3.525636,3.52563 3.525636,9.20228 0,12.72792 l -29.698482,29.69848 c -3.525634,3.52564 -9.202287,3.52564 -12.727922,0 l -8.485281,-8.48528 c -3.525635,-3.52563 -3.525635,-9.20228 0,-12.72792 l 18.922559,-18.92256 c 10.829319,-10.82932 21.7742,-12.50557 29.610206,-4.66957 z" />
        <path d="m 95.429254,199.593 2.37892,-2.37893 c 3.525646,-3.52563 3.525646,-9.20228 0,-12.72792 l -29.69848,-29.69848 c -3.52564,-3.52564 -9.20229,-3.52564 -12.72792,0 l -8.48529,8.48528 c -3.52563,3.52563 -3.52563,9.20228 0,12.72792 l 18.92256,18.92256 c 10.82932,10.82932 21.7742,12.50557 29.61021,4.66957 z" />
    </g>
</g>
<g class="blur" transform="matrix(-0.87108421,0,0,0.89294636,225.67687,-160.15134)">
    <g transform="matrix(3.1162887,0,0,3.1162887,-74.02276,-159.05858)" fill="var(--right-wing)">
        <path d="m 95.429254,139.67788 2.37892,2.37893 c 3.525636,3.52563 3.525636,9.20228 0,12.72792 l -29.698482,29.69848 c -3.525634,3.52564 -9.202287,3.52564 -12.727922,0 l -8.485281,-8.48528 c -3.525635,-3.52563 -3.525635,-9.20228 0,-12.72792 l 18.922559,-18.92256 c 10.829319,-10.82932 21.7742,-12.50557 29.610206,-4.66957 z" />
        <path d="m 95.429254,199.593 2.37892,-2.37893 c 3.525646,-3.52563 3.525646,-9.20228 0,-12.72792 l -29.69848,-29.69848 c -3.52564,-3.52564 -9.20229,-3.52564 -12.72792,0 l -8.48529,8.48528 c -3.52563,3.52563 -3.52563,9.20228 0,12.72792 l 18.92256,18.92256 c 10.82932,10.82932 21.7742,12.50557 29.61021,4.66957 z" />
    </g>
</g>
</svg>