<?xml version="1.0" encoding="UTF-8" standalone="no"?>
<svg
   width="77.851036mm"
   height="81.887299mm"
   viewBox="0 0 77.851037 81.887298"
   xmlns="http://www.w3.org/2000/svg">
   <g transform="translate(-64.47731,-80.753646)">
      <g transform="matrix(0,-1.0127839,1.0127839,0,-68.381463,195.81238)">
         <path
            style="fill:#15a9fc;stroke-width:4.99999;stroke-linejoin:bevel"
            d="m 95.429254,139.67788 2.37892,2.37893 c 3.525636,3.52563 3.525636,9.20228 0,12.72792 l -29.698482,29.69848 c -3.525634,3.52564 -9.202287,3.52564 -12.727922,0 l -8.485281,-8.48528 c -3.525635,-3.52563 -3.525635,-9.20228 0,-12.72792 l 18.922559,-18.92256 c 10.829319,-10.82932 21.7742,-12.50557 29.610206,-4.66957 z"
            id="path14435" />
         <path
            style="fill:#15a9fc;stroke-width:4.99999;stroke-linejoin:bevel"
            d="m 95.429254,199.593 2.37892,-2.37893 c 3.525646,-3.52563 3.525646,-9.20228 0,-12.72792 l -29.69848,-29.69848 c -3.52564,-3.52564 -9.20229,-3.52564 -12.72792,0 l -8.48529,8.48528 c -3.52563,3.52563 -3.52563,9.20228 0,12.72792 l 18.92256,18.92256 c 10.82932,10.82932 21.7742,12.50557 29.61021,4.66957 z"
            id="path14437" />
      </g>
   </g>
</svg>
