<?xml version="1.0" encoding="UTF-8" standalone="no"?>
<!-- Created with Inkscape (http://www.inkscape.org/) -->

<svg
   width="167.85417mm"
   height="231.86555mm"
   viewBox="0 0 167.85417 231.86555"
   version="1.1"
   id="svg5"
   inkscape:version="1.2.2 (732a01da63, 2022-12-09)"
   sodipodi:docname="logo.svg"
   xmlns:inkscape="http://www.inkscape.org/namespaces/inkscape"
   xmlns:sodipodi="http://sodipodi.sourceforge.net/DTD/sodipodi-0.dtd"
   xmlns="http://www.w3.org/2000/svg"
   xmlns:svg="http://www.w3.org/2000/svg">
  <sodipodi:namedview
     id="namedview7"
     pagecolor="#ffffff"
     bordercolor="#000000"
     borderopacity="0.25"
     inkscape:showpageshadow="2"
     inkscape:pageopacity="0.0"
     inkscape:pagecheckerboard="0"
     inkscape:deskcolor="#d1d1d1"
     inkscape:document-units="mm"
     showgrid="false"
     inkscape:zoom="1.104894"
     inkscape:cx="325.37057"
     inkscape:cy="437.146"
     inkscape:window-width="1920"
     inkscape:window-height="1057"
     inkscape:window-x="-8"
     inkscape:window-y="-8"
     inkscape:window-maximized="1"
     inkscape:current-layer="layer1" />
  <defs
     id="defs2">
    <clipPath
       id="clip0">
      <rect
         x="503"
         y="153"
         width="275"
         height="414"
         id="rect9" />
    </clipPath>
  </defs>
  <g
     inkscape:label="Layer 1"
     inkscape:groupmode="layer"
     id="layer1"
     transform="translate(0,-65.134452)">
    <g
       id="g4473"
       transform="translate(-1.0583333,0.52916667)">
      <g
         id="g4112"
         transform="translate(51.788269,-31.219306)">
        <path
           id="rect251"
           style="fill:#15a9fc;stroke-width:4.99999;stroke-linejoin:bevel"
           d="m 18.875063,114.24968 8.485281,-8.48528 c 3.525635,-3.52563 9.202288,-3.52563 12.727923,0 l 64.402143,64.40215 c 7.53668,7.53668 7.86932,20.3041 2.12541,26.04801 l -2.88794,2.88794 c -3.52564,3.52563 -9.20229,3.52563 -12.727925,0 L 18.875064,126.97761 c -3.525635,-3.52564 -3.525635,-9.20229 -10e-7,-12.72793 z"
           sodipodi:nodetypes="sssssssss" />
        <path
           id="rect251-9"
           style="fill:#15a9fc;stroke-width:4.99999;stroke-linejoin:bevel"
           d="m 48.282018,114.521 -8.48529,-8.48528 c -3.52563,-3.52563 -9.20228,-3.52563 -12.72792,0 l -64.40214,64.40215 c -7.53668,7.53668 -7.86932,20.3041 -2.12541,26.04801 l 2.88794,2.88794 c 3.52564,3.52563 9.20229,3.52563 12.72792,0 l 72.12489,-72.12489 c 3.52564,-3.52564 3.52564,-9.20229 1e-5,-12.72793 z"
           sodipodi:nodetypes="sssssssss" />
      </g>
      <g
         id="g4172"
         transform="translate(0,11.112501)">
        <path
           id="rect251-7"
           style="fill:#15a9fc;stroke-width:4.99999;stroke-linejoin:bevel"
           d="m 70.663331,266.57257 8.485281,8.48528 c 3.525635,3.52563 9.202288,3.52563 12.727923,0 L 156.27868,210.6557 c 7.53668,-7.53668 7.86932,-20.3041 2.12541,-26.04801 l -2.88794,-2.88794 c -3.52564,-3.52563 -9.20229,-3.52563 -12.72793,0 l -72.124888,72.12489 c -3.525635,3.52564 -3.525635,9.20229 -10e-7,12.72793 z"
           sodipodi:nodetypes="sssssssss" />
        <path
           id="rect251-9-0"
           style="fill:#15a9fc;stroke-width:4.99999;stroke-linejoin:bevel"
           d="m 100.07029,266.30125 -8.485294,8.48528 c -3.52563,3.52563 -9.20228,3.52563 -12.72792,0 l -64.40214,-64.40215 c -7.53668,-7.53668 -7.86932,-20.3041 -2.12541,-26.04801 l 2.88794,-2.88794 c 3.52564,-3.52563 9.20229,-3.52563 12.72792,0 l 72.124894,72.12489 c 3.52564,3.52564 3.52564,9.20229 1e-5,12.72793 z"
           sodipodi:nodetypes="sssssssss" />
      </g>
      <g
         id="g4210"
         transform="translate(1.9350181,10.722279)">
        <path
           id="rect4183"
           style="fill:#15a9fc;stroke-width:4.99999;stroke-linejoin:bevel"
           d="m 95.429254,139.67788 2.37892,2.37893 c 3.525636,3.52563 3.525636,9.20228 0,12.72792 l -29.698482,29.69848 c -3.525634,3.52564 -9.202287,3.52564 -12.727922,0 l -8.485281,-8.48528 c -3.525635,-3.52563 -3.525635,-9.20228 0,-12.72792 l 18.922559,-18.92256 c 10.829319,-10.82932 21.7742,-12.50557 29.610206,-4.66957 z"
           sodipodi:nodetypes="sssssssss" />
        <path
           id="rect4183-9"
           style="fill:#15a9fc;stroke-width:4.99999;stroke-linejoin:bevel"
           d="m 95.429254,199.593 2.37892,-2.37893 c 3.525646,-3.52563 3.525646,-9.20228 0,-12.72792 l -29.69848,-29.69848 c -3.52564,-3.52564 -9.20229,-3.52564 -12.72792,0 l -8.48529,8.48528 c -3.52563,3.52563 -3.52563,9.20228 0,12.72792 l 18.92256,18.92256 c 10.82932,10.82932 21.7742,12.50557 29.61021,4.66957 z"
           sodipodi:nodetypes="sssssssss" />
      </g>
    </g>
  </g>
</svg>
