<?xml version="1.0" encoding="UTF-8" standalone="no"?>
<svg
   width="291.76279mm"
   height="353.79633mm"
   viewBox="0 0 288.08001 164.06636"
   version="1.1"
   id="svg151"
   sodipodi:docname="dark-background.svg"
   inkscape:version="1.2.2 (732a01da63, 2022-12-09)"
   xmlns:inkscape="http://www.inkscape.org/namespaces/inkscape"
   xmlns:sodipodi="http://sodipodi.sourceforge.net/DTD/sodipodi-0.dtd"
   xmlns="http://www.w3.org/2000/svg"
   xmlns:svg="http://www.w3.org/2000/svg">
  <defs
     id="defs155" />
  <sodipodi:namedview
     id="namedview153"
     pagecolor="#000000"
     bordercolor="#000000"
     borderopacity="0.25"
     inkscape:showpageshadow="2"
     inkscape:pageopacity="0"
     inkscape:pagecheckerboard="0"
     inkscape:deskcolor="#d1d1d1"
     inkscape:document-units="mm"
     showgrid="false"
     inkscape:zoom="0.38903609"
     inkscape:cx="987.05495"
     inkscape:cy="352.15242"
     inkscape:window-width="1920"
     inkscape:window-height="1057"
     inkscape:window-x="-8"
     inkscape:window-y="-8"
     inkscape:window-maximized="1"
     inkscape:current-layer="g147" />
  <g
     inkscape:groupmode="layer"
     id="layer1"
     inkscape:label="bg"
     transform="translate(-58.421817,-148.40484)" />
  <g
     transform="translate(-60.05824,-208.9635)"
     id="g147">
    <g
       id="c-middle-0"
       transform="translate(-9.0209566,-246.61809)"
       style="fill:#000000;fill-opacity:1" />
    <g
       id="c-middle-5-8-1-5"
       transform="matrix(4.7890979,0,0,4.7890979,-142.15374,-521.56098)"
       style="fill:#0f0f0f;fill-opacity:1">
      <path
         style="fill:#0f0f0f;fill-opacity:1;stroke-width:4.99999;stroke-linejoin:bevel"
         d="m 95.429254,139.67788 2.37892,2.37893 c 3.525636,3.52563 3.525636,9.20228 0,12.72792 l -29.698482,29.69848 c -3.525634,3.52564 -9.202287,3.52564 -12.727922,0 l -8.485281,-8.48528 c -3.525635,-3.52563 -3.525635,-9.20228 0,-12.72792 l 18.922559,-18.92256 c 10.829319,-10.82932 21.7742,-12.50557 29.610206,-4.66957 z"
         id="path142-3-4-6-4" />
      <path
         style="fill:#0f0f0f;fill-opacity:1;stroke-width:4.99999;stroke-linejoin:bevel"
         d="m 95.429254,199.593 2.37892,-2.37893 c 3.525646,-3.52563 3.525646,-9.20228 0,-12.72792 l -29.69848,-29.69848 c -3.52564,-3.52564 -9.20229,-3.52564 -12.72792,0 l -8.48529,8.48528 c -3.52563,3.52563 -3.52563,9.20228 0,12.72792 l 18.92256,18.92256 c 10.82932,10.82932 21.7742,12.50557 29.61021,4.66957 z"
         id="path144-0-0-2-7" />
    </g>
  </g>
</svg>
